solid sm_hex_key
   facet normal 5.000000e-001 -8.660254e-001 0.000000e+000
      outer loop
         vertex 3.175000e+000 -1.833087e+000 1.000000e+000
         vertex 3.175000e+000 -1.833087e+000 7.400000e+001
         vertex -1.301032e-015 -3.666174e+000 1.000000e+000
      endloop
   endfacet
   facet normal 5.000000e-001 -8.660254e-001 0.000000e+000
      outer loop
         vertex -1.301032e-015 -3.666174e+000 1.000000e+000
         vertex 3.175000e+000 -1.833087e+000 7.400000e+001
         vertex -1.301032e-015 -3.666174e+000 7.400000e+001
      endloop
   endfacet
   facet normal 1.000000e+000 0.000000e+000 0.000000e+000
      outer loop
         vertex 3.175000e+000 1.833087e+000 1.000000e+000
         vertex 3.175000e+000 1.833087e+000 7.400000e+001
         vertex 3.175000e+000 -1.833087e+000 1.000000e+000
      endloop
   endfacet
   facet normal 1.000000e+000 0.000000e+000 0.000000e+000
      outer loop
         vertex 3.175000e+000 -1.833087e+000 1.000000e+000
         vertex 3.175000e+000 1.833087e+000 7.400000e+001
         vertex 3.175000e+000 -1.833087e+000 7.400000e+001
      endloop
   endfacet
   facet normal 5.000000e-001 8.660254e-001 0.000000e+000
      outer loop
         vertex 0.000000e+000 3.666174e+000 1.000000e+000
         vertex 0.000000e+000 3.666174e+000 7.400000e+001
         vertex 3.175000e+000 1.833087e+000 1.000000e+000
      endloop
   endfacet
   facet normal 5.000000e-001 8.660254e-001 0.000000e+000
      outer loop
         vertex 3.175000e+000 1.833087e+000 1.000000e+000
         vertex 0.000000e+000 3.666174e+000 7.400000e+001
         vertex 3.175000e+000 1.833087e+000 7.400000e+001
      endloop
   endfacet
   facet normal -5.000000e-001 8.660254e-001 0.000000e+000
      outer loop
         vertex -3.175000e+000 1.833087e+000 1.000000e+000
         vertex -3.175000e+000 1.833087e+000 7.400000e+001
         vertex -2.667411e-018 3.666174e+000 1.000000e+000
      endloop
   endfacet
   facet normal -5.000000e-001 8.660254e-001 0.000000e+000
      outer loop
         vertex -2.667411e-018 3.666174e+000 1.000000e+000
         vertex -3.175000e+000 1.833087e+000 7.400000e+001
         vertex -2.667411e-018 3.666174e+000 7.400000e+001
      endloop
   endfacet
   facet normal -1.000000e+000 1.182925e-016 0.000000e+000
      outer loop
         vertex -3.175000e+000 -1.833087e+000 1.000000e+000
         vertex -3.175000e+000 -1.833087e+000 7.400000e+001
         vertex -3.175000e+000 1.833087e+000 1.000000e+000
      endloop
   endfacet
   facet normal -1.000000e+000 1.182925e-016 0.000000e+000
      outer loop
         vertex -3.175000e+000 1.833087e+000 1.000000e+000
         vertex -3.175000e+000 -1.833087e+000 7.400000e+001
         vertex -3.175000e+000 1.833087e+000 7.400000e+001
      endloop
   endfacet
   facet normal -5.000000e-001 -8.660254e-001 0.000000e+000
      outer loop
         vertex -4.336809e-016 -3.666174e+000 1.000000e+000
         vertex -4.336809e-016 -3.666174e+000 7.400000e+001
         vertex -3.175000e+000 -1.833087e+000 1.000000e+000
      endloop
   endfacet
   facet normal -5.000000e-001 -8.660254e-001 0.000000e+000
      outer loop
         vertex -3.175000e+000 -1.833087e+000 1.000000e+000
         vertex -4.336809e-016 -3.666174e+000 7.400000e+001
         vertex -3.175000e+000 -1.833087e+000 7.400000e+001
      endloop
   endfacet
   facet normal 0.000000e+000 0.000000e+000 1.000000e+000
      outer loop
         vertex -8.673516e-016 -2.511474e+000 7.500000e+001
         vertex 2.175000e+000 -1.255737e+000 7.500000e+001
         vertex -2.175000e+000 -1.255737e+000 7.500000e+001
      endloop
   endfacet
   facet normal 0.000000e+000 0.000000e+000 1.000000e+000
      outer loop
         vertex -2.175000e+000 -1.255737e+000 7.500000e+001
         vertex 2.175000e+000 -1.255737e+000 7.500000e+001
         vertex 2.175000e+000 1.255737e+000 7.500000e+001
      endloop
   endfacet
   facet normal 0.000000e+000 0.000000e+000 1.000000e+000
      outer loop
         vertex -2.175000e+000 -1.255737e+000 7.500000e+001
         vertex 2.175000e+000 1.255737e+000 7.500000e+001
         vertex -2.175000e+000 1.255737e+000 7.500000e+001
      endloop
   endfacet
   facet normal 0.000000e+000 0.000000e+000 1.000000e+000
      outer loop
         vertex -2.175000e+000 1.255737e+000 7.500000e+001
         vertex 2.175000e+000 1.255737e+000 7.500000e+001
         vertex -4.191456e-016 2.511474e+000 7.500000e+001
      endloop
   endfacet
   facet normal 0.000000e+000 0.000000e+000 -1.000000e+000
      outer loop
         vertex -1.301032e-015 -2.511474e+000 0.000000e+000
         vertex -2.175000e+000 -1.255737e+000 0.000000e+000
         vertex 2.175000e+000 -1.255737e+000 0.000000e+000
      endloop
   endfacet
   facet normal 0.000000e+000 0.000000e+000 -1.000000e+000
      outer loop
         vertex 2.175000e+000 -1.255737e+000 0.000000e+000
         vertex -2.175000e+000 -1.255737e+000 0.000000e+000
         vertex -2.175000e+000 1.255737e+000 0.000000e+000
      endloop
   endfacet
   facet normal 0.000000e+000 0.000000e+000 -1.000000e+000
      outer loop
         vertex 2.175000e+000 -1.255737e+000 0.000000e+000
         vertex -2.175000e+000 1.255737e+000 0.000000e+000
         vertex 2.175000e+000 1.255737e+000 0.000000e+000
      endloop
   endfacet
   facet normal 0.000000e+000 0.000000e+000 -1.000000e+000
      outer loop
         vertex 2.175000e+000 1.255737e+000 0.000000e+000
         vertex -2.175000e+000 1.255737e+000 0.000000e+000
         vertex -1.042562e-015 2.511474e+000 0.000000e+000
      endloop
   endfacet
   facet normal -7.071068e-001 8.364543e-017 -7.071068e-001
      outer loop
         vertex -2.175000e+000 -1.255737e+000 2.168404e-016
         vertex -3.175000e+000 -1.833087e+000 1.000000e+000
         vertex -2.175000e+000 1.255737e+000 2.168404e-016
      endloop
   endfacet
   facet normal -7.071068e-001 8.364543e-017 -7.071068e-001
      outer loop
         vertex -2.175000e+000 1.255737e+000 2.168404e-016
         vertex -3.175000e+000 -1.833087e+000 1.000000e+000
         vertex -3.175000e+000 1.833087e+000 1.000000e+000
      endloop
   endfacet
   facet normal -3.535534e-001 -6.123725e-001 -7.071068e-001
      outer loop
         vertex -4.336809e-016 -2.511474e+000 -4.336809e-016
         vertex -3.570162e-016 -3.666174e+000 1.000000e+000
         vertex -2.175000e+000 -1.255737e+000 -4.336809e-016
      endloop
   endfacet
   facet normal -3.535534e-001 -6.123725e-001 -7.071068e-001
      outer loop
         vertex -2.175000e+000 -1.255737e+000 -4.336809e-016
         vertex -3.570162e-016 -3.666174e+000 1.000000e+000
         vertex -3.175000e+000 -1.833087e+000 1.000000e+000
      endloop
   endfacet
   facet normal -3.535534e-001 6.123725e-001 -7.071068e-001
      outer loop
         vertex -2.667411e-018 3.666174e+000 1.000000e+000
         vertex -9.757820e-016 2.511474e+000 -4.336809e-016
         vertex -3.175000e+000 1.833087e+000 1.000000e+000
      endloop
   endfacet
   facet normal -3.535534e-001 6.123725e-001 -7.071068e-001
      outer loop
         vertex -3.175000e+000 1.833087e+000 1.000000e+000
         vertex -9.757820e-016 2.511474e+000 -4.336809e-016
         vertex -2.175000e+000 1.255737e+000 -6.505213e-016
      endloop
   endfacet
   facet normal 3.535534e-001 -6.123725e-001 -7.071068e-001
      outer loop
         vertex 2.175000e+000 -1.255737e+000 -4.336809e-016
         vertex 3.175000e+000 -1.833087e+000 1.000000e+000
         vertex -1.517883e-015 -2.511474e+000 -4.336809e-016
      endloop
   endfacet
   facet normal 3.535534e-001 -6.123725e-001 -7.071068e-001
      outer loop
         vertex -1.517883e-015 -2.511474e+000 -4.336809e-016
         vertex 3.175000e+000 -1.833087e+000 1.000000e+000
         vertex -1.301032e-015 -3.666174e+000 1.000000e+000
      endloop
   endfacet
   facet normal 3.535534e-001 6.123725e-001 -7.071068e-001
      outer loop
         vertex 3.175000e+000 1.833087e+000 1.000000e+000
         vertex 2.175000e+000 1.255737e+000 -4.336809e-016
         vertex 0.000000e+000 3.666174e+000 1.000000e+000
      endloop
   endfacet
   facet normal 3.535534e-001 6.123725e-001 -7.071068e-001
      outer loop
         vertex 0.000000e+000 3.666174e+000 1.000000e+000
         vertex 2.175000e+000 1.255737e+000 -4.336809e-016
         vertex -1.084202e-015 2.511474e+000 -4.336809e-016
      endloop
   endfacet
   facet normal 7.071068e-001 0.000000e+000 -7.071068e-001
      outer loop
         vertex 2.175000e+000 1.255737e+000 -2.168404e-016
         vertex 3.175000e+000 1.833087e+000 1.000000e+000
         vertex 2.175000e+000 -1.255737e+000 -2.168404e-016
      endloop
   endfacet
   facet normal 7.071068e-001 0.000000e+000 -7.071068e-001
      outer loop
         vertex 2.175000e+000 -1.255737e+000 -2.168404e-016
         vertex 3.175000e+000 1.833087e+000 1.000000e+000
         vertex 3.175000e+000 -1.833087e+000 1.000000e+000
      endloop
   endfacet
   facet normal 3.535534e-001 6.123725e-001 7.071068e-001
      outer loop
         vertex 1.084202e-016 3.666174e+000 7.400000e+001
         vertex -6.313551e-016 2.511474e+000 7.500000e+001
         vertex 3.175000e+000 1.833087e+000 7.400000e+001
      endloop
   endfacet
   facet normal 3.535534e-001 6.123725e-001 7.071068e-001
      outer loop
         vertex 3.175000e+000 1.833087e+000 7.400000e+001
         vertex -6.313551e-016 2.511474e+000 7.500000e+001
         vertex 2.175000e+000 1.255737e+000 7.500000e+001
      endloop
   endfacet
   facet normal -3.535534e-001 6.123725e-001 7.071068e-001
      outer loop
         vertex -3.175000e+000 1.833087e+000 7.400000e+001
         vertex -2.175000e+000 1.255737e+000 7.500000e+001
         vertex 4.336809e-016 3.666174e+000 7.400000e+001
      endloop
   endfacet
   facet normal -3.535534e-001 6.123725e-001 7.071068e-001
      outer loop
         vertex 4.336809e-016 3.666174e+000 7.400000e+001
         vertex -2.175000e+000 1.255737e+000 7.500000e+001
         vertex -3.833233e-017 2.511474e+000 7.500000e+001
      endloop
   endfacet
   facet normal 7.071068e-001 0.000000e+000 7.071068e-001
      outer loop
         vertex 2.175000e+000 -1.255737e+000 7.500000e+001
         vertex 3.175000e+000 -1.833087e+000 7.400000e+001
         vertex 2.175000e+000 1.255737e+000 7.500000e+001
      endloop
   endfacet
   facet normal 7.071068e-001 0.000000e+000 7.071068e-001
      outer loop
         vertex 2.175000e+000 1.255737e+000 7.500000e+001
         vertex 3.175000e+000 -1.833087e+000 7.400000e+001
         vertex 3.175000e+000 1.833087e+000 7.400000e+001
      endloop
   endfacet
   facet normal -7.071068e-001 8.364543e-017 7.071068e-001
      outer loop
         vertex -3.175000e+000 -1.833087e+000 7.400000e+001
         vertex -2.175000e+000 -1.255737e+000 7.500000e+001
         vertex -3.175000e+000 1.833087e+000 7.400000e+001
      endloop
   endfacet
   facet normal -7.071068e-001 8.364543e-017 7.071068e-001
      outer loop
         vertex -3.175000e+000 1.833087e+000 7.400000e+001
         vertex -2.175000e+000 -1.255737e+000 7.500000e+001
         vertex -2.175000e+000 1.255737e+000 7.500000e+001
      endloop
   endfacet
   facet normal 3.535534e-001 -6.123725e-001 7.071068e-001
      outer loop
         vertex -1.281876e-015 -2.511474e+000 7.500000e+001
         vertex -1.734723e-015 -3.666174e+000 7.400000e+001
         vertex 2.175000e+000 -1.255737e+000 7.500000e+001
      endloop
   endfacet
   facet normal 3.535534e-001 -6.123725e-001 7.071068e-001
      outer loop
         vertex 2.175000e+000 -1.255737e+000 7.500000e+001
         vertex -1.734723e-015 -3.666174e+000 7.400000e+001
         vertex 3.175000e+000 -1.833087e+000 7.400000e+001
      endloop
   endfacet
   facet normal -3.535534e-001 -6.123725e-001 7.071068e-001
      outer loop
         vertex -8.673617e-016 -3.666174e+000 7.400000e+001
         vertex -5.738567e-016 -2.511474e+000 7.500000e+001
         vertex -3.175000e+000 -1.833087e+000 7.400000e+001
      endloop
   endfacet
   facet normal -3.535534e-001 -6.123725e-001 7.071068e-001
      outer loop
         vertex -3.175000e+000 -1.833087e+000 7.400000e+001
         vertex -5.738567e-016 -2.511474e+000 7.500000e+001
         vertex -2.175000e+000 -1.255737e+000 7.500000e+001
      endloop
   endfacet
endsolid