solid lrg_hex_key
   facet normal 5.000000e-001 -8.660254e-001 0.000000e+000
      outer loop
         vertex 3.750000e+000 -2.165064e+000 1.000000e+000
         vertex 3.750000e+000 -2.165064e+000 7.400000e+001
         vertex -1.754612e-015 -4.330127e+000 1.000000e+000
      endloop
   endfacet
   facet normal 5.000000e-001 -8.660254e-001 0.000000e+000
      outer loop
         vertex -1.754612e-015 -4.330127e+000 1.000000e+000
         vertex 3.750000e+000 -2.165064e+000 7.400000e+001
         vertex -1.754612e-015 -4.330127e+000 7.400000e+001
      endloop
   endfacet
   facet normal 1.000000e+000 0.000000e+000 0.000000e+000
      outer loop
         vertex 3.750000e+000 2.165064e+000 1.000000e+000
         vertex 3.750000e+000 2.165064e+000 7.400000e+001
         vertex 3.750000e+000 -2.165064e+000 1.000000e+000
      endloop
   endfacet
   facet normal 1.000000e+000 0.000000e+000 0.000000e+000
      outer loop
         vertex 3.750000e+000 -2.165064e+000 1.000000e+000
         vertex 3.750000e+000 2.165064e+000 7.400000e+001
         vertex 3.750000e+000 -2.165064e+000 7.400000e+001
      endloop
   endfacet
   facet normal 5.000000e-001 8.660254e-001 0.000000e+000
      outer loop
         vertex 8.673617e-016 4.330127e+000 1.000000e+000
         vertex 8.673617e-016 4.330127e+000 7.400000e+001
         vertex 3.750000e+000 2.165064e+000 1.000000e+000
      endloop
   endfacet
   facet normal 5.000000e-001 8.660254e-001 0.000000e+000
      outer loop
         vertex 3.750000e+000 2.165064e+000 1.000000e+000
         vertex 8.673617e-016 4.330127e+000 7.400000e+001
         vertex 3.750000e+000 2.165064e+000 7.400000e+001
      endloop
   endfacet
   facet normal -5.000000e-001 8.660254e-001 0.000000e+000
      outer loop
         vertex -3.750000e+000 2.165064e+000 1.000000e+000
         vertex -3.750000e+000 2.165064e+000 7.400000e+001
         vertex 3.873809e-016 4.330127e+000 1.000000e+000
      endloop
   endfacet
   facet normal -5.000000e-001 8.660254e-001 0.000000e+000
      outer loop
         vertex 3.873809e-016 4.330127e+000 1.000000e+000
         vertex -3.750000e+000 2.165064e+000 7.400000e+001
         vertex 3.873809e-016 4.330127e+000 7.400000e+001
      endloop
   endfacet
   facet normal -1.000000e+000 0.000000e+000 0.000000e+000
      outer loop
         vertex -3.750000e+000 -2.165064e+000 1.000000e+000
         vertex -3.750000e+000 -2.165064e+000 7.400000e+001
         vertex -3.750000e+000 2.165064e+000 1.000000e+000
      endloop
   endfacet
   facet normal -1.000000e+000 0.000000e+000 0.000000e+000
      outer loop
         vertex -3.750000e+000 2.165064e+000 1.000000e+000
         vertex -3.750000e+000 -2.165064e+000 7.400000e+001
         vertex -3.750000e+000 2.165064e+000 7.400000e+001
      endloop
   endfacet
   facet normal -5.000000e-001 -8.660254e-001 0.000000e+000
      outer loop
         vertex -4.336809e-016 -4.330127e+000 1.000000e+000
         vertex -4.336809e-016 -4.330127e+000 7.400000e+001
         vertex -3.750000e+000 -2.165064e+000 1.000000e+000
      endloop
   endfacet
   facet normal -5.000000e-001 -8.660254e-001 0.000000e+000
      outer loop
         vertex -3.750000e+000 -2.165064e+000 1.000000e+000
         vertex -4.336809e-016 -4.330127e+000 7.400000e+001
         vertex -3.750000e+000 -2.165064e+000 7.400000e+001
      endloop
   endfacet
   facet normal 0.000000e+000 0.000000e+000 1.000000e+000
      outer loop
         vertex -1.914640e-015 -3.175426e+000 7.500000e+001
         vertex 2.750000e+000 -1.587713e+000 7.500000e+001
         vertex -2.750000e+000 -1.587713e+000 7.500000e+001
      endloop
   endfacet
   facet normal 0.000000e+000 0.000000e+000 1.000000e+000
      outer loop
         vertex -2.750000e+000 -1.587713e+000 7.500000e+001
         vertex 2.750000e+000 -1.587713e+000 7.500000e+001
         vertex 2.750000e+000 1.587713e+000 7.500000e+001
      endloop
   endfacet
   facet normal 0.000000e+000 0.000000e+000 1.000000e+000
      outer loop
         vertex -2.750000e+000 -1.587713e+000 7.500000e+001
         vertex 2.750000e+000 1.587713e+000 7.500000e+001
         vertex -2.750000e+000 1.587713e+000 7.500000e+001
      endloop
   endfacet
   facet normal 0.000000e+000 0.000000e+000 1.000000e+000
      outer loop
         vertex -2.750000e+000 1.587713e+000 7.500000e+001
         vertex 2.750000e+000 1.587713e+000 7.500000e+001
         vertex 1.090300e-016 3.175426e+000 7.500000e+001
      endloop
   endfacet
   facet normal 0.000000e+000 0.000000e+000 -1.000000e+000
      outer loop
         vertex -2.750000e+000 1.587713e+000 0.000000e+000
         vertex 4.613957e-016 3.175426e+000 0.000000e+000
         vertex -2.750000e+000 -1.587713e+000 0.000000e+000
      endloop
   endfacet
   facet normal 0.000000e+000 0.000000e+000 -1.000000e+000
      outer loop
         vertex -2.750000e+000 -1.587713e+000 0.000000e+000
         vertex 4.613957e-016 3.175426e+000 0.000000e+000
         vertex 2.750000e+000 1.587713e+000 0.000000e+000
      endloop
   endfacet
   facet normal 0.000000e+000 0.000000e+000 -1.000000e+000
      outer loop
         vertex -2.750000e+000 -1.587713e+000 0.000000e+000
         vertex 2.750000e+000 1.587713e+000 0.000000e+000
         vertex -2.294111e-015 -3.175426e+000 0.000000e+000
      endloop
   endfacet
   facet normal 0.000000e+000 0.000000e+000 -1.000000e+000
      outer loop
         vertex -2.294111e-015 -3.175426e+000 0.000000e+000
         vertex 2.750000e+000 1.587713e+000 0.000000e+000
         vertex 2.750000e+000 -1.587713e+000 0.000000e+000
      endloop
   endfacet
   facet normal -7.071068e-001 0.000000e+000 -7.071068e-001
      outer loop
         vertex -2.750000e+000 -1.587713e+000 -2.168404e-016
         vertex -3.750000e+000 -2.165064e+000 1.000000e+000
         vertex -2.750000e+000 1.587713e+000 -2.168404e-016
      endloop
   endfacet
   facet normal -7.071068e-001 0.000000e+000 -7.071068e-001
      outer loop
         vertex -2.750000e+000 1.587713e+000 -2.168404e-016
         vertex -3.750000e+000 -2.165064e+000 1.000000e+000
         vertex -3.750000e+000 2.165064e+000 1.000000e+000
      endloop
   endfacet
   facet normal -3.535534e-001 -6.123725e-001 -7.071068e-001
      outer loop
         vertex -8.673617e-016 -3.175426e+000 -2.168404e-016
         vertex -5.103455e-016 -4.330127e+000 1.000000e+000
         vertex -2.750000e+000 -1.587713e+000 -4.336809e-016
      endloop
   endfacet
   facet normal -3.535534e-001 -6.123725e-001 -7.071068e-001
      outer loop
         vertex -2.750000e+000 -1.587713e+000 -4.336809e-016
         vertex -5.103455e-016 -4.330127e+000 1.000000e+000
         vertex -3.750000e+000 -2.165064e+000 1.000000e+000
      endloop
   endfacet
   facet normal -3.535534e-001 6.123725e-001 -7.071068e-001
      outer loop
         vertex 3.873809e-016 4.330127e+000 1.000000e+000
         vertex 5.421011e-016 3.175426e+000 -2.168404e-016
         vertex -3.750000e+000 2.165064e+000 1.000000e+000
      endloop
   endfacet
   facet normal -3.535534e-001 6.123725e-001 -7.071068e-001
      outer loop
         vertex -3.750000e+000 2.165064e+000 1.000000e+000
         vertex 5.421011e-016 3.175426e+000 -2.168404e-016
         vertex -2.750000e+000 1.587713e+000 0.000000e+000
      endloop
   endfacet
   facet normal 3.535534e-001 -6.123725e-001 -7.071068e-001
      outer loop
         vertex 2.750000e+000 -1.587713e+000 0.000000e+000
         vertex 3.750000e+000 -2.165064e+000 1.000000e+000
         vertex -2.168404e-015 -3.175426e+000 0.000000e+000
      endloop
   endfacet
   facet normal 3.535534e-001 -6.123725e-001 -7.071068e-001
      outer loop
         vertex -2.168404e-015 -3.175426e+000 0.000000e+000
         vertex 3.750000e+000 -2.165064e+000 1.000000e+000
         vertex -1.754612e-015 -4.330127e+000 1.000000e+000
      endloop
   endfacet
   facet normal 3.535534e-001 6.123725e-001 -7.071068e-001
      outer loop
         vertex 3.750000e+000 2.165064e+000 1.000000e+000
         vertex 2.750000e+000 1.587713e+000 2.168404e-016
         vertex 8.673617e-016 4.330127e+000 1.000000e+000
      endloop
   endfacet
   facet normal 3.535534e-001 6.123725e-001 -7.071068e-001
      outer loop
         vertex 8.673617e-016 4.330127e+000 1.000000e+000
         vertex 2.750000e+000 1.587713e+000 2.168404e-016
         vertex 8.673617e-016 3.175426e+000 2.168404e-016
      endloop
   endfacet
   facet normal 7.071068e-001 0.000000e+000 -7.071068e-001
      outer loop
         vertex 2.750000e+000 1.587713e+000 -2.168404e-016
         vertex 3.750000e+000 2.165064e+000 1.000000e+000
         vertex 2.750000e+000 -1.587713e+000 -2.168404e-016
      endloop
   endfacet
   facet normal 7.071068e-001 0.000000e+000 -7.071068e-001
      outer loop
         vertex 2.750000e+000 -1.587713e+000 -2.168404e-016
         vertex 3.750000e+000 2.165064e+000 1.000000e+000
         vertex 3.750000e+000 -2.165064e+000 1.000000e+000
      endloop
   endfacet
   facet normal 3.535534e-001 6.123725e-001 7.071068e-001
      outer loop
         vertex 3.252607e-016 4.330127e+000 7.400000e+001
         vertex 3.570162e-016 3.175426e+000 7.500000e+001
         vertex 3.750000e+000 2.165064e+000 7.400000e+001
      endloop
   endfacet
   facet normal 3.535534e-001 6.123725e-001 7.071068e-001
      outer loop
         vertex 3.750000e+000 2.165064e+000 7.400000e+001
         vertex 3.570162e-016 3.175426e+000 7.500000e+001
         vertex 2.750000e+000 1.587713e+000 7.500000e+001
      endloop
   endfacet
   facet normal -3.535534e-001 6.123725e-001 7.071068e-001
      outer loop
         vertex -3.750000e+000 2.165064e+000 7.400000e+001
         vertex -2.750000e+000 1.587713e+000 7.500000e+001
         vertex 5.421011e-016 4.330127e+000 7.400000e+001
      endloop
   endfacet
   facet normal -3.535534e-001 6.123725e-001 7.071068e-001
      outer loop
         vertex 5.421011e-016 4.330127e+000 7.400000e+001
         vertex -2.750000e+000 1.587713e+000 7.500000e+001
         vertex 2.551728e-016 3.175426e+000 7.500000e+001
      endloop
   endfacet
   facet normal 7.071068e-001 0.000000e+000 7.071068e-001
      outer loop
         vertex 2.750000e+000 -1.587713e+000 7.500000e+001
         vertex 3.750000e+000 -2.165064e+000 7.400000e+001
         vertex 2.750000e+000 1.587713e+000 7.500000e+001
      endloop
   endfacet
   facet normal 7.071068e-001 0.000000e+000 7.071068e-001
      outer loop
         vertex 2.750000e+000 1.587713e+000 7.500000e+001
         vertex 3.750000e+000 -2.165064e+000 7.400000e+001
         vertex 3.750000e+000 2.165064e+000 7.400000e+001
      endloop
   endfacet
   facet normal -7.071068e-001 0.000000e+000 7.071068e-001
      outer loop
         vertex -3.750000e+000 -2.165064e+000 7.400000e+001
         vertex -2.750000e+000 -1.587713e+000 7.500000e+001
         vertex -3.750000e+000 2.165064e+000 7.400000e+001
      endloop
   endfacet
   facet normal -7.071068e-001 0.000000e+000 7.071068e-001
      outer loop
         vertex -3.750000e+000 2.165064e+000 7.400000e+001
         vertex -2.750000e+000 -1.587713e+000 7.500000e+001
         vertex -2.750000e+000 1.587713e+000 7.500000e+001
      endloop
   endfacet
   facet normal 3.535534e-001 -6.123725e-001 7.071068e-001
      outer loop
         vertex -2.028229e-015 -3.175426e+000 7.500000e+001
         vertex -2.059984e-015 -4.330127e+000 7.400000e+001
         vertex 2.750000e+000 -1.587713e+000 7.500000e+001
      endloop
   endfacet
   facet normal 3.535534e-001 -6.123725e-001 7.071068e-001
      outer loop
         vertex 2.750000e+000 -1.587713e+000 7.500000e+001
         vertex -2.059984e-015 -4.330127e+000 7.400000e+001
         vertex 3.750000e+000 -2.165064e+000 7.400000e+001
      endloop
   endfacet
   facet normal -3.535534e-001 -6.123725e-001 7.071068e-001
      outer loop
         vertex -1.409463e-015 -4.330127e+000 7.400000e+001
         vertex -1.460385e-015 -3.175426e+000 7.500000e+001
         vertex -3.750000e+000 -2.165064e+000 7.400000e+001
      endloop
   endfacet
   facet normal -3.535534e-001 -6.123725e-001 7.071068e-001
      outer loop
         vertex -3.750000e+000 -2.165064e+000 7.400000e+001
         vertex -1.460385e-015 -3.175426e+000 7.500000e+001
         vertex -2.750000e+000 -1.587713e+000 7.500000e+001
      endloop
   endfacet
endsolid